<svg width="14" height="20" viewBox="0 0 14 20" fill="none" xmlns="http://www.w3.org/2000/svg">
    <path
        d="M4.12693 4.5C4.09843 3.695 4.12143 2.8425 4.40493 2.1765C4.55443 1.8265 4.76993 1.5435 5.08193 1.343C5.39543 1.142 5.84543 1 6.50343 1C7.24093 1 7.85543 1.268 8.29543 1.547C8.51393 1.686 8.68443 1.8245 8.79893 1.927C8.85238 1.97513 8.90408 2.02516 8.95393 2.077L8.95893 2.082V2.0825C9.00253 2.13161 9.05538 2.17166 9.11445 2.20035C9.17353 2.22904 9.23768 2.24582 9.30324 2.24972C9.36879 2.25362 9.43448 2.24457 9.49654 2.22308C9.5586 2.2016 9.61582 2.1681 9.66493 2.1245C9.71405 2.0809 9.75409 2.02806 9.78279 1.96898C9.81148 1.9099 9.82825 1.84576 9.83215 1.7802C9.83605 1.71464 9.827 1.64896 9.80552 1.5869C9.78403 1.52484 9.75053 1.46761 9.70693 1.4185L9.33943 1.7435C9.70693 1.4185 9.70593 1.4175 9.70593 1.4175L9.70393 1.415L9.69893 1.41C9.67925 1.38773 9.65891 1.36606 9.63793 1.345C9.58238 1.28916 9.52519 1.23497 9.46643 1.1825C9.26786 1.00588 9.05552 0.84537 8.83143 0.7025C8.28643 0.358 7.48643 0 6.50343 0C5.70043 0 5.05193 0.1745 4.54193 0.5015C4.03043 0.83 3.69693 1.2865 3.48493 1.7845C3.11593 2.651 3.09793 3.6835 3.12593 4.5H0.474434C0.197934 4.5 -0.0285664 4.725 0.00293361 4.999C0.310434 7.689 3.08293 9.8205 6.53193 9.989V14H7.53193V9.983C8.36422 9.93334 9.18467 9.7615 9.96693 9.473C9.97193 9.53033 9.97443 9.58983 9.97443 9.6515C9.97443 10.0325 9.66293 10.4885 9.02393 10.8845C8.6963 11.0847 8.34332 11.24 7.97443 11.3465V12.3795C8.53092 12.2508 9.06295 12.033 9.54993 11.7345C10.2864 11.28 10.9744 10.5615 10.9744 9.652C10.9744 9.447 10.9554 9.2445 10.9129 9.048C12.5964 8.146 13.7529 6.682 13.9459 4.9995C13.9774 4.7255 13.7504 4.5005 13.4744 4.5005L4.12693 4.5Z"
        fill="black" />
    <path
        d="M9.97449 17.5C9.97449 18.0825 9.79449 18.594 9.46499 19H10.9745V20H2.97449V19H6.53199V17H7.53199V18.957C7.93299 18.8915 8.24999 18.755 8.47799 18.5755C8.79049 18.3305 8.97449 17.9775 8.97449 17.5C8.97449 17.0225 8.79049 16.67 8.47799 16.4245C8.15299 16.1685 7.64699 15.9995 6.97449 15.9995C6.21599 15.9995 5.37449 15.94 4.70899 15.6445C4.36699 15.4925 4.05149 15.2695 3.82249 14.943C3.59149 14.613 3.47449 14.2125 3.47449 13.75C3.47449 13.2875 3.59149 12.887 3.82249 12.557C4.05149 12.2305 4.36749 12.0075 4.70899 11.8555C5.08899 11.6865 5.52749 11.5945 5.97449 11.547V12.5535C5.64549 12.595 5.35349 12.6635 5.11499 12.7695C4.89449 12.8675 4.74149 12.9885 4.64199 13.1305C4.54499 13.269 4.47449 13.4625 4.47449 13.75C4.47449 14.0375 4.54449 14.231 4.64199 14.3695C4.74149 14.5115 4.89449 14.6325 5.11499 14.7305C5.57499 14.935 6.23299 15 6.97449 15C7.80149 15 8.54649 15.2065 9.09599 15.638C9.65849 16.08 9.97449 16.7275 9.97449 17.5Z"
        fill="black" />
</svg>
    