<svg width="20" height="19" viewBox="0 0 20 19" fill="none" xmlns="http://www.w3.org/2000/svg">
    <path
        d="M17.148 0.971C16.9697 0.675655 16.7183 0.431188 16.4181 0.261128C16.1179 0.0910674 15.779 0.00113973 15.434 0H4.566C3.868 0 3.211 0.372 2.852 0.971L0.143 5.485C0.0494898 5.64051 5.74309e-05 5.81854 0 6C0.00399371 6.96521 0.359494 7.89591 1 8.618V17C1 18.103 1.897 19 3 19H17C18.103 19 19 18.103 19 17V8.618C19.6405 7.89591 19.996 6.96521 20 6C19.9999 5.81854 19.9505 5.64051 19.857 5.485L17.148 0.971ZM17.984 6.251C17.9229 6.73408 17.6876 7.17827 17.3224 7.50027C16.9571 7.82227 16.4869 7.99995 16 8C14.897 8 14 7.103 14 6C14 5.932 13.975 5.872 13.961 5.808L13.981 5.804L13.22 2H15.434L17.984 6.251ZM8.819 2H11.18L11.993 6.065C11.958 7.137 11.08 8 10 8C8.92 8 8.042 7.137 8.007 6.065L8.819 2ZM4.566 2H6.78L6.02 5.804L6.04 5.808C6.025 5.872 6 5.932 6 6C6 7.103 5.103 8 4 8C3.51307 7.99995 3.04288 7.82227 2.67762 7.50027C2.31236 7.17827 2.07711 6.73408 2.016 6.251L4.566 2ZM8 17V14H12V17H8ZM14 17V14C14 12.897 13.103 12 12 12H8C6.897 12 6 12.897 6 14V17H3V9.858C3.321 9.941 3.652 10 4 10C4.56771 9.99966 5.12885 9.87847 5.6461 9.6445C6.16336 9.41053 6.62488 9.06913 7 8.643C7.733 9.475 8.807 10 10 10C11.193 10 12.267 9.475 13 8.643C13.3751 9.06913 13.8366 9.41053 14.3539 9.6445C14.8712 9.87847 15.4323 9.99966 16 10C16.348 10 16.679 9.941 17 9.858V17H14Z"
        fill="black" />
</svg>
    
    