<svg width="15" height="15" viewBox="0 0 15 15" fill="none" xmlns="http://www.w3.org/2000/svg">
    <path
        d="M14.4875 11.9911L11.9536 9.45725L10.0046 8.65203C10.6536 7.72918 11.0013 6.6282 11 5.5C11 2.46728 8.53272 0 5.5 0C2.46728 0 0 2.46728 0 5.5C0 8.53272 2.46728 11 5.5 11C6.63801 11.0013 7.74809 10.6476 8.67559 9.98822L9.47872 11.932L12.0125 14.466C12.175 14.6285 12.3679 14.7574 12.5802 14.8453C12.7926 14.9333 13.0201 14.9786 13.2499 14.9786C13.4798 14.9786 13.7073 14.9333 13.9197 14.8454C14.132 14.7574 14.3249 14.6285 14.4874 14.466C14.6499 14.3035 14.7788 14.1106 14.8668 13.8983C14.9548 13.686 15 13.4584 15 13.2286C15 12.9988 14.9548 12.7712 14.8668 12.5589C14.7789 12.3466 14.65 12.1536 14.4875 11.9911ZM1 5.5C1 3.01875 3.01875 1 5.5 1C7.98125 1 10 3.01875 10 5.5C10 7.98125 7.98125 10 5.5 10C3.01875 10 1 7.98125 1 5.5ZM13.7803 13.7589C13.6396 13.8993 13.4488 13.9782 13.25 13.9782C13.0512 13.9782 12.8604 13.8993 12.7197 13.7589L10.3268 11.366L9.58009 9.55866L11.3875 10.3053L13.7804 12.6982C13.9208 12.839 13.9997 13.0297 13.9997 13.2286C13.9996 13.4274 13.9208 13.6181 13.7803 13.7589Z"
        fill="black" />
</svg>
    